<?xml version="1.0" encoding="utf-8"?>
<!-- Generator: Adobe Illustrator 22.0.0, SVG Export Plug-In . SVG Version: 6.00 Build 0)  -->
<svg version="1.1" xmlns="http://www.w3.org/2000/svg" xmlns:xlink="http://www.w3.org/1999/xlink" x="0px" y="0px"
	 viewBox="0 0 889.8 314" style="enable-background:new 0 0 889.8 314;" xml:space="preserve">
<style type="text/css">
	.st0{fill:url(#Shape_28_);}
	.st1{fill:#A6CE39;}
	.st2{fill:url(#Shape_29_);}
	.st3{fill:#1F4B96;}
	.st4{display:none;}
	.st5{display:inline;fill:#1F4B96;}
</style>
<g id="Layer_1">
	<title>logo</title>
	<description>Created with Sketch (http://www.bohemiancoding.com/sketch)</description>
	<g id="Page-1">
		<g id="logo" transform="translate(-1.000000, -1.000000)">
			<path id="Shape" d="M236.8,97.6l-12.4-19.1c-1.5,0.1-3.3,0.1-4.7,0.1c-2.5,0-5.3,0-7.3-0.1v19.1h-4.5V50.9
				c4.8-0.2,7.5-0.3,11.6-0.3c11.7,0,19.6,2.9,19.6,13.5v0.5c0,7.5-3.5,11.3-10,13l12.9,19.9L236.8,97.6L236.8,97.6L236.8,97.6
				L236.8,97.6z M234.6,64.2c0-7.7-5-9.7-15.1-9.7c-2.2,0-4.9,0.1-7.2,0.2v20.3c2.2,0.1,4.8,0.1,7.3,0.1c10.2,0,14.9-2.6,14.9-10.3
				V64.2L234.6,64.2L234.6,64.2L234.6,64.2z"/>
			<path id="Shape_1_" d="M265.8,98.4c-11.9,0-18.8-6.9-18.8-21.7v-4.9c0-14.8,6.9-21.7,18.8-21.7c11.8,0,18.7,6.9,18.7,21.7v4.9
				C284.6,91.5,277.7,98.4,265.8,98.4L265.8,98.4L265.8,98.4L265.8,98.4z M280.1,71.8c0-13.5-6-17.9-14.3-17.9
				c-8.4,0-14.3,4.4-14.3,17.9v4.9c0,13.5,6,17.9,14.3,17.9c8.3,0,14.3-4.4,14.3-17.9V71.8L280.1,71.8L280.1,71.8L280.1,71.8z"/>
			<path id="Shape_2_" d="M307.6,78.8v18.9h-4.5V78.8L287,50.9h4.9l10,17.4c1.1,2,2.4,4.3,3.3,6.4h0.3c0.9-2.1,2.4-4.5,3.5-6.4
				l10-17.4h4.6L307.6,78.8L307.6,78.8L307.6,78.8L307.6,78.8z"/>
			<path id="Shape_3_" d="M355.8,97.6L350,81.1h-18.9l-5.9,16.5h-4.6l16.9-46.7h6.2l16.8,46.7H355.8L355.8,97.6L355.8,97.6
				L355.8,97.6z M343,61.6c-0.9-2.4-1.5-4.7-2.1-7.2h-0.5c-0.7,2.6-1.3,4.8-2.1,7.2l-5.8,15.7h16.1L343,61.6L343,61.6L343,61.6
				L343,61.6z"/>
			<path id="Shape_4_" d="M367.6,97.6V50.9h4.5v43h23.7v3.7L367.6,97.6L367.6,97.6L367.6,97.6L367.6,97.6z"/>
			<path id="Shape_5_" d="M239.7,156.5l-5.8-16.5H215l-5.9,16.5h-4.6l16.9-46.7h6.2l16.8,46.7H239.7L239.7,156.5L239.7,156.5
				L239.7,156.5z M226.9,120.4c-0.9-2.4-1.5-4.7-2.1-7.2h-0.5c-0.7,2.6-1.3,4.8-2.1,7.2l-5.8,15.7h16.1L226.9,120.4L226.9,120.4
				L226.9,120.4L226.9,120.4z"/>
			<path id="Shape_6_" d="M267.9,157.3c-11.8,0-19.5-5-19.5-21.5v-5.3c0-16.4,7.7-21.5,19.5-21.5c5,0,9.6,0.7,11.6,1v3.5
				c-3.7-0.4-7.3-0.7-11.6-0.7c-10.2,0-15.1,4.7-15.1,17.7v5.3c0,13,4.8,17.7,15.1,17.7c4.4,0,8.2-0.3,11.6-0.7v3.5
				C277.8,156.6,273,157.3,267.9,157.3L267.9,157.3L267.9,157.3L267.9,157.3z"/>
			<path id="Shape_7_" d="M318.8,156.5l-5.8-16.5h-18.9l-5.9,16.5h-4.6l16.9-46.7h6.2l16.8,46.7H318.8L318.8,156.5L318.8,156.5
				L318.8,156.5z M306,120.4c-0.9-2.4-1.5-4.7-2.1-7.2h-0.5c-0.7,2.6-1.3,4.8-2.1,7.2l-5.8,15.7h16.1L306,120.4L306,120.4L306,120.4
				L306,120.4z"/>
			<path id="Shape_8_" d="M343.9,156.7c-5.6,0-8.5-0.1-13.4-0.3v-46.7c5.4-0.1,7.2-0.2,13.4-0.2c14.9,0,21.4,7.2,21.4,20.8v5.5
				C365.3,149.4,359.2,156.7,343.9,156.7L343.9,156.7L343.9,156.7L343.9,156.7z M360.8,130.3c0-12.6-5.9-17-17.2-17
				c-3.3,0-6,0.1-8.6,0.1v39.3c2.5,0.1,5.4,0.3,8.6,0.3c11.3,0,17.2-4.5,17.2-17.2V130.3L360.8,130.3L360.8,130.3L360.8,130.3z"/>
			<path id="Shape_9_" d="M374,156.5v-46.7h28.7v3.8h-24.2v16.7h22.6v3.8h-22.6v18.7h24.2v3.7H374L374,156.5L374,156.5L374,156.5z"
				/>
			<path id="Shape_10_" d="M449.2,156.5v-33.9c0-2.8,0.1-4.7,0.3-7.3h-0.1c-1.1,2.2-2.2,4.2-3.3,6.2l-10.4,18.4H430l-10.2-18.4
				c-1.1-2.1-2.2-4.2-3.3-6.2h-0.1c0.1,2.6,0.2,4.5,0.2,7.3v33.9H412v-46.7h5.9l11.9,21.4c1,1.8,2,3.8,2.9,5.6h0.1
				c0.9-1.9,2-3.8,2.9-5.7l12-21.4h5.8v46.7L449.2,156.5L449.2,156.5L449.2,156.5L449.2,156.5z"/>
			<path id="Shape_11_" d="M481.7,137.6v18.9h-4.5v-18.9l-16.1-27.9h4.9l10,17.4c1.1,1.9,2.4,4.3,3.4,6.4h0.3
				c0.9-2.1,2.4-4.5,3.5-6.4l10-17.4h4.6L481.7,137.6L481.7,137.6L481.7,137.6L481.7,137.6z"/>
			<path id="Shape_12_" d="M535.5,157.3c-11.9,0-18.8-6.9-18.8-21.7v-4.9c0-14.8,6.9-21.7,18.8-21.7c11.8,0,18.7,6.9,18.7,21.7v4.9
				C554.2,150.4,547.3,157.3,535.5,157.3L535.5,157.3L535.5,157.3L535.5,157.3z M549.7,130.7c0-13.5-6-17.9-14.3-17.9
				c-8.4,0-14.3,4.4-14.3,17.9v4.9c0,13.5,6,17.9,14.3,17.9c8.3,0,14.3-4.4,14.3-17.9V130.7L549.7,130.7L549.7,130.7L549.7,130.7z"
				/>
			<path id="Shape_13_" d="M568,113.5v16.7h22.6v3.8H568v22.5h-4.5v-46.7h28.7v3.8L568,113.5L568,113.5L568,113.5L568,113.5z"/>
			<path id="Shape_14_" d="M207.9,218.3v-49.7h33.9v9.1h-21.4v10.8h19.9v8.6h-19.9v12.1h21.4v9L207.9,218.3L207.9,218.3L207.9,218.3
				L207.9,218.3z"/>
			<path id="Shape_15_" d="M279.7,218.3l-14.4-25.8c-1.2-2.1-2.5-4.6-3.5-6.8h-0.1c0.1,2.6,0.2,5.4,0.2,8v24.6h-11.4v-49.7h12.8
				l14.5,25.4c1.2,2.1,2.5,4.8,3.5,7h0.1c-0.1-2.3-0.2-5.5-0.2-8.5v-23.9h11.4v49.7H279.7L279.7,218.3L279.7,218.3L279.7,218.3z"/>
			<path id="Shape_16_" d="M322.8,219.5c-11.8,0-22-4.2-22-23.1v-5.9c0-19.9,11.4-23,22.2-23c7.4,0,15.1,1.2,17.4,1.8v8.5
				c-3.5-0.2-11-0.6-15.1-0.6c-7.8,0-12.2,1.6-12.2,13.3v5.9c0,10.6,3.2,13.4,10.1,13.4c2,0,4.1,0,5.7-0.1v-18.1h11.7v26.4
				C337.2,218.5,330.2,219.5,322.8,219.5L322.8,219.5L322.8,219.5L322.8,219.5z"/>
			<path id="Shape_17_" d="M349.6,218.3v-49.7h12.5v49.7H349.6L349.6,218.3L349.6,218.3L349.6,218.3z"/>
			<path id="Shape_18_" d="M400.5,218.3l-14.4-25.8c-1.2-2.1-2.5-4.6-3.5-6.8h-0.1c0.1,2.6,0.2,5.4,0.2,8v24.6h-11.4v-49.7h12.8
				l14.5,25.4c1.2,2.1,2.5,4.8,3.5,7h0.1c-0.1-2.3-0.2-5.5-0.2-8.5v-23.9h11.4v49.7H400.5L400.5,218.3L400.5,218.3L400.5,218.3z"/>
			<path id="Shape_19_" d="M422.6,218.3v-49.7h33.9v9.1h-21.4v10.8h19.9v8.6h-19.9v12.1h21.4v9L422.6,218.3L422.6,218.3L422.6,218.3
				L422.6,218.3z"/>
			<path id="Shape_20_" d="M465.3,218.3v-49.7h33.9v9.1h-21.4v10.8h19.9v8.6h-19.9v12.1h21.4v9L465.3,218.3L465.3,218.3L465.3,218.3
				L465.3,218.3z"/>
			<path id="Shape_21_" d="M537.9,218.3l-10.2-17.7h-7.5v17.7h-12v-49.7c5-0.3,9.9-0.6,16.1-0.6c12.5,0,23.1,2.4,23.1,16.1v0.5
				c0,7.4-2.9,11.3-7.9,13.7l11.1,20.1L537.9,218.3L537.9,218.3L537.9,218.3L537.9,218.3z M535.2,184.2c0-5.6-3.2-6.9-10.6-6.9
				c-1.6,0-2.8,0-4.4,0.1v14.5h4.6c7.4,0,10.4-1.7,10.4-7.2V184.2L535.2,184.2L535.2,184.2L535.2,184.2z"/>
			<path id="Shape_22_" d="M555.4,218.3v-49.7h12.5v49.7H555.4L555.4,218.3L555.4,218.3L555.4,218.3z"/>
			<path id="Shape_23_" d="M606.3,218.3l-14.4-25.8c-1.2-2.1-2.5-4.6-3.5-6.8h-0.1c0.1,2.6,0.2,5.4,0.2,8v24.6h-11.4v-49.7h12.8
				l14.5,25.4c1.2,2.1,2.5,4.8,3.5,7h0.1c-0.1-2.3-0.2-5.5-0.2-8.5v-23.9h11.4v49.7H606.3L606.3,218.3L606.3,218.3L606.3,218.3z"/>
			<path id="Shape_24_" d="M649.6,219.5c-11.8,0-22-4.2-22-23.1v-5.9c0-19.9,11.4-23,22.2-23c7.4,0,15.1,1.2,17.4,1.8v8.5
				c-3.5-0.2-11-0.6-15.1-0.6c-7.8,0-12.2,1.6-12.2,13.3v5.9c0,10.6,3.2,13.4,10.1,13.4c2,0,4.1,0,5.7-0.1v-18.1h11.6v26.4
				C664,218.5,657,219.5,649.6,219.5L649.6,219.5L649.6,219.5L649.6,219.5z"/>
			
				<linearGradient id="Shape_28_" gradientUnits="userSpaceOnUse" x1="-166.1842" y1="440.7122" x2="-163.8969" y2="441.843" gradientTransform="matrix(68.6723 0 0 -96.8845 11436.6084 42864.543)">
				<stop  offset="0" style="stop-color:#0099DA"/>
				<stop  offset="0.2214" style="stop-color:#0079B5"/>
				<stop  offset="0.5978" style="stop-color:#004F8A"/>
				<stop  offset="0.8667" style="stop-color:#1D3473"/>
				<stop  offset="1" style="stop-color:#22296C"/>
			</linearGradient>
			<path id="Shape_25_" class="st0" d="M169.6,57.4c-0.9-18.9-8.8-33.8-22.4-43.3C134,4.9,115.2,0.1,93.3,1.1
				c-25.2,1.2-46.4,9.6-62.5,22C10.6,38.6,0.4,61.1,1,87.6c1.3,50.1,33.1,94.7,49.4,114.4c12.3,14.8,37.9,39.4,60.6,38
				c18.4-1.1,25.9-17.6,33.2-39.3C157.4,161.8,171.5,95.8,169.6,57.4C169.6,57.4,171.5,95.8,169.6,57.4L169.6,57.4L169.6,57.4z
				 M125.6,176.6c-4.1,13.2-8.1,24.7-16.2,25.7c-10.6,1.3-23.2-12.8-30.4-24.2c-8.5-13.4-22.7-39.7-25-76.4
				c-2.5-39.3,25.4-59.5,46.7-61.9c22.1-2.4,39.2,12.5,40.9,38.1C143,100.5,133.9,149.7,125.6,176.6
				C125.6,176.6,133.9,149.7,125.6,176.6L125.6,176.6L125.6,176.6z"/>
			<g id="Group" transform="translate(17.000000, 4.000000)">
				<path id="Shape_26_" class="st1" d="M132.9,49.4c-2.4-52.9-81-56.1-100.3-18.3c-22,43.2,6.3,106.4,29,144.4
					c32.7,54.7,56,62.9,64.5-4.9C130.9,131.1,134.7,89.6,132.9,49.4 M108.1,171.5c-4,12.9-8,24.3-15.8,25.2
					C81.8,198,69.5,184.2,62.4,173c-8.3-13.1-22.2-39-24.5-74.9c-2.5-38.5,24.9-58.4,45.7-60.6c21.6-2.4,38.5,12.3,40.1,37.4
					C125.1,96.9,116.2,145.2,108.1,171.5"/>
				
					<linearGradient id="Shape_29_" gradientUnits="userSpaceOnUse" x1="-178.7016" y1="437.248" x2="-181.2799" y2="436.3274" gradientTransform="matrix(44.085 0 0 -86.456 8030.2417 37867.1406)">
					<stop  offset="0" style="stop-color:#A6CE39"/>
					<stop  offset="0.2097" style="stop-color:#A1C939"/>
					<stop  offset="0.3785" style="stop-color:#93BE39"/>
					<stop  offset="0.533" style="stop-color:#7EAE3A"/>
					<stop  offset="0.6791" style="stop-color:#619B3A"/>
					<stop  offset="0.8191" style="stop-color:#3B8438"/>
					<stop  offset="0.9528" style="stop-color:#006C33"/>
					<stop  offset="1" style="stop-color:#006330"/>
				</linearGradient>
				<path id="Shape_27_" class="st2" d="M37.7,93.3c0-35.3,25.9-53.7,45.9-55.8c1.5-0.2,3-0.3,4.5-0.3c19.4,0,34.1,14.3,35.6,37.7
					c0.1,1.6,0.1,3.3,0.1,5.1c0,23.7-8.3,67.1-15.8,91.6c-4,12.9-8,24.3-15.8,25.2c-0.4,0.1-0.9,0.1-1.3,0.1
					c-10.1,0-21.7-13.1-28.5-23.8c-8.3-13.1-22.2-39-24.5-74.9C37.8,96.5,37.7,94.9,37.7,93.3 M81,5.7c-19.9,0-40,8.7-48.5,25.3
					c-5.6,11-8,23.3-8,36.2c0,37.6,20,79.9,37,108.3c16.6,27.7,30.7,43.5,41.8,43.5c10.7,0,18.5-14.9,22.7-48.4
					c4.1-32.6,7.3-66.5,7.3-100c0-7.1-0.2-14.3-0.5-21.3C131.5,19.8,106.3,5.7,81,5.7"/>
			</g>
		</g>
	</g>
	<g id="Layer_2">
		<g>
			<path class="st3" d="M207,310.9v-4.3c0-8.5,2.7-11.5,10.5-15.6c5.5-2.8,6.4-4,6.4-6.2c0-2.4-1.5-3.2-6.2-3.2
				c-3.4,0-7.9,0.3-10,0.5v-5.2c3.2-0.9,7.8-1.4,11.4-1.4c9.5,0,13.6,2.8,13.6,8.9c0,4.7-2.4,7.7-9.6,11.3c-6.6,3.3-7.6,4.5-7.6,8.4
				v0.5h16.5v6.4H207z"/>
			<path class="st3" d="M251.5,311.7c-9.7,0-14.2-5.7-14.2-16v-4.2c0-10.3,4.5-16,14.2-16c9.7,0,14.2,5.7,14.2,16v4.2
				C265.6,306,261.2,311.7,251.5,311.7z M256.9,291.5c0-7.6-2.1-9.5-5.4-9.5c-3.3,0-5.4,1.9-5.4,9.5v4.2c0,7.6,2.1,9.5,5.4,9.5
				c3.4,0,5.4-1.9,5.4-9.5V291.5z"/>
			<path class="st3" d="M270.3,310.9v-5.8l7.5-0.4v-21.2l-7.5,2v-6.2l9.9-3.3h6.3v28.6l7.4,0.4v5.8H270.3z"/>
			<path class="st3" d="M312.1,311.7h-0.2c-7.7,0-14.2-1.1-14.2-10.7v-0.3c0-3.6,1.3-5.9,3.8-7.6c-2.3-1.5-3.7-3.7-3.7-7.4v-0.4
				c0-8.2,6.2-9.8,14.1-9.8h0.2c7.9,0,14.1,1.6,14.1,9.8v0.4c0,3.7-1.4,5.9-3.7,7.4c2.6,1.7,3.8,4,3.8,7.6v0.3
				C326.3,310.7,319.7,311.7,312.1,311.7z M317.7,300.6c0-3.5-0.9-4.9-3.7-4.9H310c-2.9,0-3.7,1.4-3.7,4.9v0.3
				c0,4.3,2.1,5.1,5.6,5.1h0.2c3.5,0,5.6-0.8,5.6-5.1V300.6z M317.6,285.5c0-3.5-2.1-4.3-5.5-4.3h-0.2c-3.4,0-5.5,0.8-5.5,4.3v0.4
				c0,2.7,0.8,4.3,3.7,4.3h3.9c2.9,0,3.6-1.6,3.6-4.3V285.5z"/>
			<path class="st3" d="M331.6,310.9v-7.7h8.2v7.7H331.6z"/>
			<path class="st3" d="M372.9,298.4v12.5h-8.5v-12.5l-11.6-22.2h8.9l4.7,9.2c0.7,1.6,1.6,3.6,2.2,5.3h0.2c0.6-1.7,1.5-3.7,2.3-5.3
				l4.7-9.2h8.7L372.9,298.4z"/>
			<path class="st3" d="M388.6,310.9v-34.7h23.6v6.4h-14.9v7.6h13.9v6h-13.9v8.5h14.9v6.3H388.6z"/>
			<path class="st3" d="M439.3,310.9l-2.5-8.7h-9.9l-2.5,8.7h-9l9.7-34.7h13.5l9.8,34.7H439.3z M433.1,286.7
				c-0.4-1.7-0.8-3.5-1.1-5.3h-0.3c-0.3,1.8-0.6,3.6-1.1,5.3l-2.5,9.2h7.5L433.1,286.7z"/>
			<path class="st3" d="M473.6,310.9l-7.1-12.4h-5.2v12.4h-8.4v-34.7c3.5-0.2,6.9-0.4,11.2-0.4c8.7,0,16.1,1.7,16.1,11.2v0.3
				c0,5.1-2.1,7.9-5.5,9.6l7.8,14H473.6z M471.7,287.2c0-3.9-2.2-4.8-7.4-4.8c-1.1,0-2,0-3.1,0v10.1h3.2c5.2,0,7.3-1.2,7.3-5V287.2z
				"/>
			<path class="st3" d="M509.7,311.7c-9,0-15.1-4.3-15.1-16.3v-3.5c0-12,6.2-16.3,15.1-16.3c9,0,15.1,4.3,15.1,16.3v3.5
				C524.9,307.4,518.8,311.7,509.7,311.7z M516.3,291.8c0-7.2-2.3-9.6-6.5-9.6c-4.1,0-6.5,2.3-6.5,9.6v3.5c0,7.4,2.4,9.6,6.5,9.6
				c4.1,0,6.5-2.2,6.5-9.6V291.8z"/>
			<path class="st3" d="M539.3,282.6v7.6h13.9v6h-13.9v14.7h-8.7v-34.7h23.7v6.4H539.3z"/>
			<path class="st3" d="M568.9,310.9v-34.7h23.6v6.4h-14.9v7.6h13.9v6h-13.9v8.5h14.9v6.3H568.9z"/>
			<path class="st3" d="M618.6,310.9l-10-18c-0.8-1.5-1.7-3.2-2.4-4.8H606c0,1.8,0.1,3.7,0.1,5.6v17.2h-7.9v-34.7h8.9l10.1,17.7
				c0.8,1.5,1.8,3.4,2.5,4.9h0.1c-0.1-1.6-0.1-3.8-0.1-5.9v-16.7h7.9v34.7H618.6z"/>
			<path class="st3" d="M648.7,311.7c-8.3,0-15.3-2.9-15.3-16.1v-4.1c0-13.9,7.9-16,15.5-16c5.1,0,10.5,0.8,12.1,1.3v5.9
				c-2.4-0.1-7.7-0.4-10.5-0.4c-5.4,0-8.5,1.1-8.5,9.2v4.1c0,7.4,2.2,9.3,7.1,9.3c1.4,0,2.8,0,4-0.1v-12.7h8.1v18.4
				C658.7,311.1,653.9,311.7,648.7,311.7z"/>
			<path class="st3" d="M667.4,310.9v-34.7h8.7v34.7H667.4z"/>
			<path class="st3" d="M703.3,310.9l-10-18c-0.8-1.5-1.7-3.2-2.4-4.8h-0.1c0,1.8,0.1,3.7,0.1,5.6v17.2h-7.9v-34.7h8.9l10.1,17.7
				c0.8,1.5,1.8,3.4,2.5,4.9h0.1c-0.1-1.6-0.1-3.8-0.1-5.9v-16.7h7.9v34.7H703.3z"/>
			<path class="st3" d="M719.2,310.9v-34.7h23.6v6.4h-14.9v7.6h13.9v6h-13.9v8.5h14.9v6.3H719.2z"/>
			<path class="st3" d="M748.5,310.9v-34.7h23.6v6.4h-14.9v7.6h13.9v6h-13.9v8.5h14.9v6.3H748.5z"/>
			<path class="st3" d="M798.6,310.9l-7.1-12.4h-5.2v12.4h-8.4v-34.7c3.5-0.2,6.9-0.4,11.2-0.4c8.7,0,16.1,1.7,16.1,11.2v0.3
				c0,5.1-2.1,7.9-5.5,9.6l7.8,14H798.6z M796.7,287.2c0-3.9-2.2-4.8-7.4-4.8c-1.1,0-2,0-3.1,0v10.1h3.2c5.2,0,7.3-1.2,7.3-5V287.2z
				"/>
			<path class="st3" d="M811.4,310.9v-34.7h8.7v34.7H811.4z"/>
			<path class="st3" d="M847.3,310.9l-10-18c-0.8-1.5-1.7-3.2-2.4-4.8h-0.1c0,1.8,0.1,3.7,0.1,5.6v17.2h-7.9v-34.7h8.9l10.1,17.7
				c0.8,1.5,1.8,3.4,2.5,4.9h0.1c-0.1-1.6-0.1-3.8-0.1-5.9v-16.7h7.9v34.7H847.3z"/>
			<path class="st3" d="M877.4,311.7c-8.3,0-15.3-2.9-15.3-16.1v-4.1c0-13.9,7.9-16,15.5-16c5.1,0,10.5,0.8,12.1,1.3v5.9
				c-2.4-0.1-7.7-0.4-10.5-0.4c-5.4,0-8.5,1.1-8.5,9.2v4.1c0,7.4,2.2,9.3,7.1,9.3c1.4,0,2.8,0,4-0.1v-12.7h8.1v18.4
				C887.4,311.1,882.5,311.7,877.4,311.7z"/>
		</g>
	</g>
	<path class="st3" d="M207.8,252.2h682 M889.8,251.2h-682v2h682V251.2z"/>
</g>
<g id="Layer_3" class="st4">
	<path class="st5" d="M207.8,313.3v-4.9c0-8.4,3.3-11.6,11.8-16.2c6.4-3.5,7.8-5.3,7.8-8.8c0-3.9-2.4-5.2-8.8-5.2
		c-3.2,0-7,0.3-9.9,0.8v-3.7c2-0.5,6.1-1.2,10.2-1.2c8.9,0,13.3,2.7,13.3,9.3c0,4.8-2.2,8.1-9.9,12.3c-8.1,4.4-9.7,6.5-9.7,12.6v0.7
		h19.2v4.2H207.8z"/>
	<path class="st5" d="M251.5,314c-8.6,0-13.5-5.5-13.5-16.2v-7.4c0-10.8,4.9-16.2,13.5-16.2c8.6,0,13.5,5.4,13.5,16.2v7.4
		C265.1,308.5,260.1,314,251.5,314z M260.3,290.4c0-9.1-3.7-12.1-8.8-12.1c-5,0-8.8,3-8.8,12.1v7.4c0,9.1,3.7,12.1,8.8,12.1
		c5.1,0,8.8-3,8.8-12.1V290.4z"/>
	<path class="st5" d="M271.3,313.3v-3.9l9-0.3v-29.7l-9,2.9v-4.1l10.3-3.6h3.5v34.6l8.9,0.3v3.9H271.3z"/>
	<path class="st5" d="M312.8,314c-6.5,0-13.6-0.5-13.6-11.8c0-4.7,1.5-7.2,4.2-8.9c-2.5-1.5-4-4-4-8.1c0-9.4,6.9-11,13.6-11
		c6.5,0,13.5,1.6,13.5,11c0,4-1.6,6.6-4,8.1c2.7,1.7,4.2,4.2,4.2,8.9C326.6,313.5,319.5,314,312.8,314z M316.4,295.3h-7
		c-4.1,0-5.4,2.1-5.4,6.9c0,7,3.7,7.7,9,7.7c5.2,0,8.9-0.7,8.9-7.7C321.8,297.4,320.5,295.3,316.4,295.3z M312.8,278.3
		c-5,0-8.8,0.8-8.8,6.9c0,3.8,1.2,6.1,5.3,6.1h7c4.1,0,5.3-2.3,5.3-6.1C321.7,279.1,318,278.3,312.8,278.3z"/>
	<path class="st5" d="M334.1,313.3v-7.1h4.7v7.1H334.1z"/>
	<path class="st5" d="M371.4,298.1v15.2h-4.7v-15.2l-12.8-23.3h5.2l7,12.7c1,1.8,2.2,4.1,3,6.1h0.3c0.7-2,2.1-4.3,3.1-6.1l6.9-12.7
		h4.9L371.4,298.1z"/>
	<path class="st5" d="M389.7,313.3v-38.5h22.8v4.2h-18v12.1h16.9v4.3h-16.9v13.6h18v4.2H389.7z"/>
	<path class="st5" d="M443.3,313.3l-4-12.6h-13.8l-4.1,12.6h-4.8l12.6-38.5h6.6l12.6,38.5H443.3z M434.3,285.1
		c-0.7-2.1-1.1-4-1.6-6.3h-0.5c-0.5,2.3-0.9,4.2-1.6,6.3l-3.7,11.2h10.9L434.3,285.1z"/>
	<path class="st5" d="M476,313.3l-9.1-15c-1,0.1-2.5,0.1-3.6,0.1h-4.5v15h-4.8v-38.5h9.1c8.9,0,16.1,1.9,16.1,11.8
		c0,6.2-2.7,9.2-7.2,10.7l9.6,16H476z M463.2,279.1h-4.3v15.1h4.5c7.5,0,11.1-1.5,11.1-7.6C474.4,280.2,470.6,279.1,463.2,279.1z"/>
	<path class="st5" d="M510.3,314c-9.6,0-14.9-6.2-14.9-17.2v-5.5c0-11,5.3-17.1,14.9-17.1c9.6,0,14.9,6.2,14.9,17.1v5.5
		C525.2,307.8,519.9,314,510.3,314z M520.4,291.3c0-9.4-4.1-12.9-10.1-12.9c-5.9,0-10,3.5-10,12.9v5.5c0,9.4,4.1,13,10,13
		c5.9,0,10.1-3.5,10.1-13V291.3z"/>
	<path class="st5" d="M537.2,279.1v12.1h16.9v4.3h-16.9v17.8h-4.8v-38.5h22.8v4.2H537.2z"/>
	<path class="st5" d="M571.8,313.3v-38.5h22.8v4.2h-18v12.1h16.9v4.3h-16.9v13.6h18v4.2H571.8z"/>
	<path class="st5" d="M622.9,313.3l-13.6-27.6c-0.9-1.9-2.1-4.2-3.1-6.5h-0.1c0.2,2.5,0.3,5.3,0.3,8v26.1h-4.5v-38.5h6.8l13.4,26.9
		c0.9,1.9,2.2,4.5,3.1,6.6h0.1c-0.2-3.1-0.3-6.1-0.3-8.4v-25h4.6v38.5H622.9z"/>
	<path class="st5" d="M652.2,314c-8.5,0-15.3-3.8-15.3-16.6v-6.8c0-13.5,7.7-16.5,15.3-16.5c5.6,0,10.7,0.9,11.3,1v3.8
		c-2.3-0.2-8.4-0.6-10.6-0.6c-6.5,0-11.2,1.7-11.2,12.2v6.8c0,9.8,4,12.2,11.1,12.2c2.2,0,4.4-0.1,6-0.2v-16.2h4.8v19.6
		C662,313.3,657.5,314,652.2,314z"/>
	<path class="st5" d="M671.3,313.3v-38.5h4.8v38.5H671.3z"/>
	<path class="st5" d="M705.9,313.3l-13.6-27.6c-0.9-1.9-2.1-4.2-3.1-6.5h-0.1c0.2,2.5,0.3,5.3,0.3,8v26.1h-4.5v-38.5h6.8l13.4,26.9
		c0.9,1.9,2.2,4.5,3.1,6.6h0.1c-0.2-3.1-0.3-6.1-0.3-8.4v-25h4.6v38.5H705.9z"/>
	<path class="st5" d="M721.5,313.3v-38.5h22.8v4.2h-18v12.1h16.9v4.3h-16.9v13.6h18v4.2H721.5z"/>
	<path class="st5" d="M751.5,313.3v-38.5h22.8v4.2h-18v12.1h16.9v4.3h-16.9v13.6h18v4.2H751.5z"/>
	<path class="st5" d="M803.5,313.3l-9.1-15c-1,0.1-2.5,0.1-3.6,0.1h-4.5v15h-4.8v-38.5h9.1c8.9,0,16.1,1.9,16.1,11.8
		c0,6.2-2.7,9.2-7.2,10.7l9.6,16H803.5z M790.6,279.1h-4.3v15.1h4.5c7.5,0,11.1-1.5,11.1-7.6C801.9,280.2,798.1,279.1,790.6,279.1z"
		/>
	<path class="st5" d="M814.6,313.3v-38.5h4.8v38.5H814.6z"/>
	<path class="st5" d="M849.1,313.3l-13.6-27.6c-0.9-1.9-2.1-4.2-3.1-6.5h-0.1c0.2,2.5,0.3,5.3,0.3,8v26.1h-4.5v-38.5h6.8l13.4,26.9
		c0.9,1.9,2.2,4.5,3.1,6.6h0.1c-0.2-3.1-0.3-6.1-0.3-8.4v-25h4.6v38.5H849.1z"/>
	<path class="st5" d="M878.4,314c-8.5,0-15.3-3.8-15.3-16.6v-6.8c0-13.5,7.7-16.5,15.3-16.5c5.6,0,10.7,0.9,11.3,1v3.8
		c-2.3-0.2-8.4-0.6-10.6-0.6c-6.5,0-11.2,1.7-11.2,12.2v6.8c0,9.8,4,12.2,11.1,12.2c2.2,0,4.4-0.1,6-0.2v-16.2h4.8v19.6
		C888.2,313.3,883.7,314,878.4,314z"/>
</g>
</svg>
